<svg xmlns="http://www.w3.org/2000/svg" xmlns:svg="http://www.w3.org/2000/svg" id="svg1" version="1.1" viewBox="0 0 24 24" xml:space="preserve"><path id="path1" d="M10,4H4C2.89,4 2,4.89 2,6V18A2,2 0 0,0 4,20H20A2,2 0 0,0 22,18V8C22,6.89 21.1,6 20,6H12L10,4Z" style="fill:#45403d;fill-opacity:1"/><g id="layer1" style="display:inline"><g id="g1" transform="matrix(0.64501372,0,0,0.64501372,9.9666185,7.2114927)"><path id="path1-6" fill="#1e88e5" d="m 11.94,2.984 -9.012,18.033 9.875,-8.47 z"/><path id="path2" fill="#e53935" d="m 11.958,2.982 0.002,0.29 1.312,14.499 -0.002,0.006 0.023,0.26 7.363,2.978 h 0.415 l -0.158,-0.31 -0.114,-0.228 H 20.798 L 11.958,2.983 Z"/><path id="path3" fill="#7cb342" d="M 8.558,16.13 2.931,21.014 H 20.674 V 20.998 L 8.559,16.13 Z"/></g></g></svg>