<svg xmlns="http://www.w3.org/2000/svg" xmlns:svg="http://www.w3.org/2000/svg" id="svg1" version="1.1" viewBox="0 0 24 24"><path id="path1" d="M19,20H4C2.89,20 2,19.1 2,18V6C2,4.89 2.89,4 4,4H10L12,6H19A2,2 0 0,1 21,8H21L4,8V18L6.14,10H23.21L20.93,18.5C20.7,19.37 19.92,20 19,20Z" style="fill:#45403d;fill-opacity:1"/><g id="g2" transform="matrix(0.64501372,0,0,0.64501372,9.9666185,7.2114927)" style="display:inline"><path id="path1-6" fill="#1e88e5" d="m 11.94,2.984 -9.012,18.033 9.875,-8.47 z"/><path id="path2" fill="#e53935" d="m 11.958,2.982 0.002,0.29 1.312,14.499 -0.002,0.006 0.023,0.26 7.363,2.978 h 0.415 l -0.158,-0.31 -0.114,-0.228 H 20.798 L 11.958,2.983 Z"/><path id="path3" fill="#7cb342" d="M 8.558,16.13 2.931,21.014 H 20.674 V 20.998 L 8.559,16.13 Z"/></g></svg>