<svg xmlns="http://www.w3.org/2000/svg" xmlns:xlink="http://www.w3.org/1999/xlink" x="0" y="0" version="1.1" viewBox="0 0 24 24" xml:space="preserve"><path fill="#45403d" d="M10,4H4C2.9,4,2,4.9,2,6v12c0,1.1,0.9,2,2,2h16c1.1,0,2-0.9,2-2V8c0-1.1-0.9-2-2-2h-8L10,4z"/><g transform="translate(-.203 -.102)"><circle cx="17.5" cy="15.6" r="5.7" fill="none" stroke="#B3E5FC"/><path fill="#B3E5FC" fill-rule="evenodd" d="M17.6,12.1c-2,0-3.6,1.6-3.6,3.5c0,2,1.6,3.5,3.6,3.5c2,0,3.6-1.6,3.6-3.5C21.2,13.7,19.6,12.1,17.6,12.1L17.6,12.1z M18.6,13.2c0.7,0,1.3,0.6,1.3,1.3c0,0,0,0,0,0c0,0.7-0.6,1.3-1.3,1.3c-0.7,0-1.3-0.6-1.3-1.3C17.3,13.7,17.9,13.2,18.6,13.2C18.6,13.2,18.6,13.2,18.6,13.2L18.6,13.2z" class="st2" clip-rule="evenodd"/><ellipse cx="21.7" cy="11.5" fill="#B3E5FC" fill-rule="evenodd" class="st2" clip-rule="evenodd" rx="1.3" ry="1.3"/></g></svg>