<svg width="144" height="144" viewBox="0 0 144 144" fill="none" xmlns="http://www.w3.org/2000/svg">
<path d="M20 35.9116V78.9366C20 80.9702 21.0468 82.8599 22.7689 83.9354L52.1434 102.279C56.0579 104.723 61.1281 101.903 61.1281 97.2801V61.1142C61.1281 59.0335 62.2235 57.1071 64.0098 56.0467L81.928 45.4096V138.101C81.928 142.708 86.9678 145.531 90.8833 143.118L121.202 124.432C122.941 123.36 124 121.461 124 119.415V30.4047C124 25.8203 119.004 22.9935 115.088 25.3615L81.928 45.4096V5.89883C81.928 1.32685 76.9566 -1.50179 73.0394 0.841368L22.8649 30.8541C21.0882 31.9169 20 33.8378 20 35.9116Z" fill="white"/>
</svg>
