<svg viewBox="0 0 77 47" fill="none" xmlns="http://www.w3.org/2000/svg">
<path d="M44.9165 7.55707C44.9165 8.80648 45.929 9.81894 47.1784 9.81894H55.7606C56.7687 9.81894 57.2728 11.0382 56.5598 11.7491L45.5778 22.731C45.1535 23.1554 44.9144 23.7306 44.9144 24.3316V28.0863C44.9144 29.6481 46.4632 30.7316 47.8333 29.9863C49.2292 29.228 50.5281 28.3103 51.7021 27.2591C52.1674 26.8433 52.8826 26.839 53.3242 27.2828L61.3226 35.2812C61.7643 35.7228 61.7664 36.4401 61.3097 36.8667C55.2436 42.5429 47.0901 46.0197 38.1266 46.0197C29.1631 46.0197 21.0096 42.5429 14.9434 36.8667C14.4867 36.4401 14.4889 35.7228 14.9305 35.2812L22.9289 27.2828C23.3705 26.8412 24.0857 26.8433 24.551 27.2591C25.725 28.3103 27.024 29.228 28.4199 29.9863C29.7921 30.7316 31.3388 29.6481 31.3388 28.0863V24.3316C31.3388 23.7306 31.0997 23.1554 30.6753 22.731L19.6934 11.7491C18.9803 11.036 19.4844 9.81894 20.4926 9.81894H29.0748C30.3242 9.81894 31.3366 8.80648 31.3366 7.55707V1.90022C31.3366 1.27552 31.8429 0.769287 32.4676 0.769287H43.7791C44.4038 0.769287 44.9101 1.27552 44.9101 1.90022V7.55707H44.9165Z" fill="#00F7F1"/>
<path d="M6.91893 0C-2.27936 13.1663 -2.33322 33.5748 6.91893 46.7885H13.1337C3.88372 33.5748 3.93757 13.1663 13.1337 0H6.91893Z" fill="white"/>
<path d="M69.3407 0.000244141H63.126C72.3243 13.1665 72.3781 33.5751 63.126 46.7888H69.3407C78.5907 33.5751 78.5369 13.1665 69.3407 0.000244141Z" fill="white"/>
</svg>
