<svg
  width="60"
  height="60"
  viewBox="0 -2 18 18"
  fill="none"
  color="#00C2ED"
  xmlns="http://www.w3.org/2000/svg"
  aria-hidden="true"
>
  <path
    fill-rule="evenodd"
    clip-rule="evenodd"
    d="M6.879 9.121C7.041 9.283 7.203 9.44 7.367 9.592 7.672 9.873 7.69 10.348 7.408 10.651 7.127 10.956 6.652 10.974 6.349 10.692 6.17 10.528 5.993 10.357 5.818 10.182 5.23 9.594 4.697 8.985 4.225 8.369 4.014 8.764 3.839 9.147 3.702 9.513 3.145 10.997 3.299 11.906 3.695 12.303 4.092 12.699 5.001 12.854 6.485 12.297 7.899 11.767 9.567 10.674 11.12 9.121 11.816 8.426 12.419 7.707 12.92 7 12.419 6.291 11.816 5.574 11.121 4.878 9.568 3.325 7.901 2.232 6.486 1.703 5.003 1.146 4.092 1.3 3.696 1.696 3.3 2.092 3.145 3.003 3.702 4.486 3.839 4.853 4.014 5.236 4.225 5.629 4.697 5.015 5.229 4.405 5.817 3.818 6.007 3.629 6.197 3.445 6.39 3.267 6.695 2.987 7.169 3.008 7.449 3.312 7.731 3.617 7.71 4.092 7.406 4.372 7.228 4.535 7.052 4.704 6.877 4.878 6.183 5.574 5.58 6.291 5.079 7 5.58 7.707 6.183 8.426 6.879 9.121ZM2.298 5.013C2.538 5.655 2.87 6.324 3.282 7 2.87 7.676 2.538 8.345 2.296 8.986 1.701 10.574 1.567 12.296 2.636 13.364 3.703 14.431 5.426 14.298 7.012 13.702 8.67 13.08 10.512 11.851 12.181 10.182 12.768 9.594 13.302 8.985 13.774 8.369 13.985 8.764 14.16 9.147 14.297 9.513 14.854 10.997 14.7 11.906 14.302 12.303 13.933 12.672 13.117 12.838 11.771 12.388 11.377 12.257 10.953 12.471 10.822 12.863 10.691 13.256 10.903 13.68 11.296 13.812 12.776 14.305 14.36 14.367 15.363 13.364 16.431 12.296 16.296 10.574 15.702 8.986 15.461 8.345 15.129 7.676 14.716 7 15.129 6.324 15.461 5.655 15.701 5.013 16.296 3.426 16.431 1.704 15.363 0.636 14.367-0.361 12.798-0.307 11.33 0.177 10.936 0.306 10.722 0.729 10.851 1.123 10.981 1.516 11.404 1.731 11.798 1.601 13.128 1.164 13.936 1.33 14.302 1.696 14.698 2.092 14.854 3.003 14.297 4.486 14.16 4.853 13.985 5.236 13.774 5.629 13.302 5.015 12.768 4.405 12.182 3.818 10.513 2.149 8.67 0.918 7.012 0.297 5.426-0.298 3.704-0.432 2.636 0.636 1.567 1.704 1.702 3.426 2.298 5.013ZM9 8.125C9.621 8.125 10.125 7.621 10.125 7 10.125 6.379 9.621 5.875 9 5.875 8.379 5.875 7.875 6.379 7.875 7 7.875 7.621 8.379 8.125 9 8.125Z"
    fill="currentColor"
  ></path>
</svg>
